<svg xmlns="http://www.w3.org/2000/svg" viewBox="0 0 100 100">
  <defs>
    <linearGradient id="notesGrad" x1="0%" y1="0%" x2="100%" y2="100%">
      <stop offset="0%" style="stop-color:#F39C12"/>
      <stop offset="100%" style="stop-color:#E67E22"/>
    </linearGradient>
  </defs>
  <!-- Notepad background -->
  <rect x="15" y="10" width="70" height="80" rx="6" fill="url(#notesGrad)"/>
  <!-- Paper -->
  <rect x="20" y="18" width="60" height="67" rx="4" fill="white"/>
  <!-- Lines -->
  <line x1="26" y1="32" x2="74" y2="32" stroke="#e0e0e0" stroke-width="1.5"/>
  <line x1="26" y1="44" x2="74" y2="44" stroke="#e0e0e0" stroke-width="1.5"/>
  <line x1="26" y1="56" x2="74" y2="56" stroke="#e0e0e0" stroke-width="1.5"/>
  <line x1="26" y1="68" x2="74" y2="68" stroke="#e0e0e0" stroke-width="1.5"/>
  <!-- Text representation -->
  <rect x="26" y="27" width="35" height="3" rx="1.5" fill="#666"/>
  <rect x="26" y="39" width="42" height="3" rx="1.5" fill="#999"/>
  <rect x="26" y="51" width="28" height="3" rx="1.5" fill="#999"/>
  <rect x="26" y="63" width="38" height="3" rx="1.5" fill="#999"/>
  <!-- Pencil -->
  <rect x="62" y="5" width="8" height="35" rx="2" fill="#F9E79F" transform="rotate(30 66 22)"/>
  <polygon points="60,40 66,52 72,40" fill="#F5CBA7" transform="rotate(30 66 46)"/>
  <polygon points="63,48 66,56 69,48" fill="#333" transform="rotate(30 66 52)"/>
</svg>
